<svg width="121" height="55" viewBox="0 0 121 55" fill="none" xmlns="http://www.w3.org/2000/svg">
<path d="M23.3693 0.715921V53.0796H12.2983V11.2244H11.9915L0 18.7415V8.92331L12.9631 0.715921H23.3693ZM56.3459 54.2301C51.9482 54.2131 48.1641 53.1307 44.9936 50.983C41.8402 48.8352 39.4112 45.7244 37.7067 41.6506C36.0192 37.5767 35.1839 32.6761 35.201 26.9489C35.201 21.2386 36.0447 16.3722 37.7322 12.3494C39.4368 8.32672 41.8658 5.26706 45.0192 3.17047C48.1896 1.05683 51.9652 1.19209e-05 56.3459 1.19209e-05C60.7266 1.19209e-05 64.4936 1.05683 67.647 3.17047C70.8175 5.2841 73.255 8.35228 74.9595 12.375C76.6641 16.3807 77.5078 21.2386 77.4908 26.9489C77.4908 32.6932 76.6385 37.6023 74.934 41.6761C73.2465 45.75 70.826 48.8608 67.6726 51.0085C64.5192 53.1563 60.7436 54.2301 56.3459 54.2301ZM56.3459 45.0511C59.3459 45.0511 61.7408 43.5426 63.5305 40.5256C65.3203 37.5085 66.2067 32.983 66.1896 26.9489C66.1896 22.9773 65.7805 19.6705 64.9624 17.0284C64.1612 14.3864 63.0192 12.4006 61.5362 11.071C60.0703 9.74149 58.3402 9.07672 56.3459 9.07672C53.3629 9.07672 50.9766 10.5682 49.1868 13.5511C47.397 16.5341 46.4936 21 46.4766 26.9489C46.4766 30.9716 46.8771 34.3296 47.6783 37.0227C48.4964 39.6989 49.647 41.7102 51.13 43.0568C52.6129 44.3864 54.3516 45.0511 56.3459 45.0511ZM94.5895 13.8068L101.8 27.5369L109.189 13.8068H120.362L108.984 33.4432L120.669 53.0796H109.547L101.8 39.5029L94.1804 53.0796H82.9304L94.5895 33.4432L83.3395 13.8068H94.5895Z" fill="url(#paint0_linear_1_54)" fill-opacity="0.6"/>
<defs>
<linearGradient id="paint0_linear_1_54" x1="59.8438" y1="1.07956" x2="59.8438" y2="53.0796" gradientUnits="userSpaceOnUse">
<stop stop-color="#032E15"/>
<stop offset="1" stop-color="#016630"/>
</linearGradient>
</defs>
</svg>
