<svg width="181" height="55" viewBox="0 0 181 55" fill="none" xmlns="http://www.w3.org/2000/svg">
<path d="M0.511378 53.0796V45.1023L19.1506 27.8438C20.7358 26.3097 22.0654 24.929 23.1392 23.7017C24.2301 22.4744 25.0568 21.2727 25.6193 20.0966C26.1818 18.9034 26.4631 17.6165 26.4631 16.2358C26.4631 14.7017 26.1137 13.3807 25.4148 12.2727C24.7159 11.1477 23.7614 10.2869 22.5512 9.69035C21.3409 9.07672 19.9688 8.7699 18.4347 8.7699C16.8324 8.7699 15.4347 9.09376 14.2415 9.74149C13.0483 10.3892 12.1279 11.3182 11.4801 12.5284C10.8324 13.7386 10.5085 15.179 10.5085 16.8494H1.40667e-05C1.40667e-05 13.4233 0.775582 10.4489 2.32672 7.92615C3.87785 5.40342 6.05115 3.45172 8.84661 2.07103C11.6421 0.690352 14.8637 1.19209e-05 18.5114 1.19209e-05C22.2614 1.19209e-05 25.5256 0.664785 28.304 1.99433C31.0994 3.30683 33.2727 5.13069 34.8239 7.46592C36.375 9.80115 37.1506 12.4773 37.1506 15.4943C37.1506 17.4716 36.7585 19.4233 35.9744 21.3494C35.2074 23.2756 33.8352 25.4148 31.858 27.7671C29.8807 30.1023 27.0938 32.9063 23.4972 36.179L15.8523 43.6705V44.0284H37.8409V53.0796H0.511378ZM66.3942 54.2301C61.9965 54.2131 58.2124 53.1307 55.0419 50.983C51.8885 48.8352 49.4595 45.7244 47.755 41.6506C46.0675 37.5767 45.2323 32.6761 45.2493 26.9489C45.2493 21.2386 46.0931 16.3722 47.7806 12.3494C49.4851 8.32672 51.9141 5.26706 55.0675 3.17047C58.2379 1.05683 62.0135 1.19209e-05 66.3942 1.19209e-05C70.7749 1.19209e-05 74.5419 1.05683 77.6953 3.17047C80.8658 5.2841 83.3033 8.35228 85.0078 12.375C86.7124 16.3807 87.5561 21.2386 87.5391 26.9489C87.5391 32.6932 86.6868 37.6023 84.9823 41.6761C83.2948 45.75 80.8743 48.8608 77.7209 51.0085C74.5675 53.1563 70.7919 54.2301 66.3942 54.2301ZM66.3942 45.0511C69.3942 45.0511 71.7891 43.5426 73.5789 40.5256C75.3686 37.5085 76.255 32.983 76.2379 26.9489C76.2379 22.9773 75.8289 19.6705 75.0107 17.0284C74.2095 14.3864 73.0675 12.4006 71.5845 11.071C70.1186 9.74149 68.3885 9.07672 66.3942 9.07672C63.4112 9.07672 61.0249 10.5682 59.2351 13.5511C57.4453 16.5341 56.5419 21 56.5249 26.9489C56.5249 30.9716 56.9254 34.3296 57.7266 37.0227C58.5448 39.6989 59.6953 41.7102 61.1783 43.0568C62.6612 44.3864 64.3999 45.0511 66.3942 45.0511ZM95.7401 53.0796V0.715921H106.811V23.804H107.501L126.345 0.715921H139.615L120.183 24.1619L139.845 53.0796H126.601L112.257 31.5511L106.811 38.1989V53.0796H95.7401ZM157.558 45.1023V8.89774H166.711V45.1023H157.558ZM144.032 31.5767V22.4233H180.237V31.5767H144.032Z" fill="url(#paint0_linear_1_60)" fill-opacity="0.6"/>
<defs>
<linearGradient id="paint0_linear_1_60" x1="91.7671" y1="1.07956" x2="91.7671" y2="53.0796" gradientUnits="userSpaceOnUse">
<stop stop-color="#032E15"/>
<stop offset="1" stop-color="#016630"/>
</linearGradient>
</defs>
</svg>
