<svg width="41" height="54" viewBox="0 0 41 54" fill="none" xmlns="http://www.w3.org/2000/svg">
<path d="M19.5852 0.0255551C22.2784 0.0255551 24.8693 0.477259 27.358 1.38067C29.8636 2.28408 32.0966 3.72442 34.0568 5.70169C36.0341 7.67897 37.5938 10.304 38.7358 13.5767C39.8949 16.8324 40.483 20.8295 40.5 25.5682C40.5 30.017 39.9972 33.9886 38.9915 37.4829C38.0029 40.9602 36.5796 43.9176 34.7216 46.3551C32.8636 48.7926 30.6222 50.6506 27.9972 51.929C25.3722 53.1903 22.4404 53.821 19.2017 53.821C15.7074 53.821 12.6222 53.1477 9.94603 51.8011C7.2699 50.4375 5.11365 48.5881 3.47728 46.2528C1.85797 43.9006 0.877852 41.2585 0.536943 38.3267H11.4546C11.8807 40.2358 12.7756 41.7187 14.1392 42.7756C15.5029 43.8153 17.1904 44.3352 19.2017 44.3352C22.6108 44.3352 25.2017 42.8523 26.9744 39.8864C28.7472 36.9034 29.6421 32.821 29.6591 27.6392H29.3011C28.5171 29.1733 27.4602 30.4943 26.1307 31.6023C24.8011 32.6932 23.2756 33.5369 21.554 34.1335C19.8494 34.7301 18.0341 35.0284 16.108 35.0284C13.0227 35.0284 10.2699 34.304 7.84944 32.8551C5.42899 31.4062 3.5199 29.4119 2.12217 26.8721C0.724443 24.3324 0.0255793 21.4346 0.0255793 18.179C0.00853387 14.6676 0.818193 11.5398 2.45456 8.79544C4.09092 6.05112 6.37501 3.9034 9.30683 2.35226C12.2557 0.784078 15.6818 0.00850916 19.5852 0.0255551ZM19.6619 8.71874C17.9404 8.71874 16.4063 9.12783 15.0597 9.94601C13.7301 10.7642 12.6733 11.8636 11.8892 13.2443C11.1222 14.625 10.7472 16.1676 10.7642 17.8721C10.7642 19.5937 11.1392 21.1449 11.8892 22.5256C12.6563 23.8892 13.696 24.9801 15.0085 25.7983C16.3381 26.5994 17.8551 27 19.5597 27C20.8381 27 22.0227 26.7614 23.1136 26.2841C24.2046 25.8068 25.1506 25.1506 25.9517 24.3153C26.7699 23.4631 27.4091 22.4829 27.8693 21.375C28.3296 20.267 28.5597 19.0909 28.5597 17.8466C28.5426 16.1932 28.1506 14.6761 27.3835 13.2954C26.6165 11.9148 25.5597 10.8068 24.2131 9.97158C22.8665 9.13635 21.3494 8.71874 19.6619 8.71874Z" fill="url(#paint0_linear_1_57)" fill-opacity="0.6"/>
<defs>
<linearGradient id="paint0_linear_1_57" x1="23.3949" y1="2.1051" x2="23.3949" y2="52.1051" gradientUnits="userSpaceOnUse">
<stop stop-color="#032E15"/>
<stop offset="1" stop-color="#016630"/>
</linearGradient>
</defs>
</svg>
