<svg width="108" height="49" viewBox="0 0 108 49" fill="none" xmlns="http://www.w3.org/2000/svg">
<path d="M45.4489 9C45.3163 8.51705 45.1222 8.06487 44.8665 7.64347C44.6108 7.21733 44.2936 6.84564 43.9148 6.52841C43.5407 6.20644 43.1075 5.95549 42.6151 5.77557C42.1274 5.59564 41.5829 5.50568 40.9815 5.50568C40.0346 5.50568 39.187 5.75189 38.4389 6.24432C37.6908 6.73674 37.099 7.44697 36.6634 8.375C36.2325 9.30303 36.017 10.4205 36.017 11.7273C36.017 13.0294 36.2348 14.1444 36.6705 15.0724C37.1061 16.0005 37.7027 16.7131 38.4602 17.2102C39.2225 17.7027 40.0938 17.9489 41.0739 17.9489C41.9688 17.9489 42.7595 17.75 43.446 17.3523C44.1326 16.9545 44.6676 16.3864 45.0511 15.6477C45.4394 14.9091 45.6288 14.0308 45.6193 13.0128L46.0455 13.1477H41.3864V11.9545H46.9119V13.1477C46.9119 14.3883 46.661 15.4607 46.1591 16.3651C45.6572 17.2694 44.9683 17.9678 44.0923 18.4602C43.2164 18.9527 42.2102 19.1989 41.0739 19.1989C39.8049 19.1989 38.6946 18.8935 37.7429 18.2827C36.7912 17.6671 36.0502 16.8007 35.5199 15.6832C34.9943 14.5611 34.7315 13.2424 34.7315 11.7273C34.7315 10.5862 34.883 9.55634 35.1861 8.63778C35.4891 7.71922 35.9176 6.93324 36.4716 6.27983C37.0303 5.62642 37.6908 5.12689 38.4531 4.78125C39.2154 4.43087 40.0582 4.25568 40.9815 4.25568C41.777 4.25568 42.5038 4.38115 43.1619 4.6321C43.8248 4.88305 44.4072 5.22869 44.9091 5.66903C45.4157 6.10464 45.83 6.6089 46.152 7.18182C46.4787 7.75 46.6989 8.35606 46.8125 9H45.4489ZM48.723 5.64773V4.45455H59.2699V5.64773H54.6605V19H53.3324V5.64773H48.723ZM71.7184 9C71.5858 8.51705 71.3917 8.06487 71.136 7.64347C70.8803 7.21733 70.5631 6.84564 70.1843 6.52841C69.8103 6.20644 69.377 5.95549 68.8846 5.77557C68.3969 5.59564 67.8524 5.50568 67.2511 5.50568C66.3041 5.50568 65.4566 5.75189 64.7085 6.24432C63.9603 6.73674 63.3685 7.44697 62.9329 8.375C62.502 9.30303 62.2866 10.4205 62.2866 11.7273C62.2866 13.0294 62.5044 14.1444 62.94 15.0724C63.3756 16.0005 63.9722 16.7131 64.7298 17.2102C65.4921 17.7027 66.3633 17.9489 67.3434 17.9489C68.2383 17.9489 69.029 17.75 69.7156 17.3523C70.4021 16.9545 70.9371 16.3864 71.3207 15.6477C71.7089 14.9091 71.8983 14.0308 71.8888 13.0128L72.315 13.1477H67.6559V11.9545H73.1815V13.1477C73.1815 14.3883 72.9305 15.4607 72.4286 16.3651C71.9267 17.2694 71.2378 17.9678 70.3619 18.4602C69.4859 18.9527 68.4798 19.1989 67.3434 19.1989C66.0745 19.1989 64.9641 18.8935 64.0124 18.2827C63.0607 17.6671 62.3197 16.8007 61.7894 15.6832C61.2638 14.5611 61.0011 13.2424 61.0011 11.7273C61.0011 10.5862 61.1526 9.55634 61.4556 8.63778C61.7586 7.71922 62.1871 6.93324 62.7411 6.27983C63.2998 5.62642 63.9603 5.12689 64.7227 4.78125C65.485 4.43087 66.3278 4.25568 67.2511 4.25568C68.0465 4.25568 68.7733 4.38115 69.4315 4.6321C70.0943 4.88305 70.6767 5.22869 71.1786 5.66903C71.6853 6.10464 72.0996 6.6089 72.4215 7.18182C72.7482 7.75 72.9684 8.35606 73.082 9H71.7184Z" fill="black"/>
</svg>
