<svg width="184" height="92" viewBox="0 0 184 92" fill="none" xmlns="http://www.w3.org/2000/svg">
<path d="M27.0256 0.715921V53.0796H15.9545V11.2244H15.6477L3.65625 18.7415V8.92331L16.6193 0.715921H27.0256ZM60.0021 54.2301C55.6044 54.2131 51.8203 53.1307 48.6499 50.983C45.4964 48.8352 43.0675 45.7244 41.3629 41.6506C39.6754 37.5767 38.8402 32.6761 38.8572 26.9489C38.8572 21.2386 39.701 16.3722 41.3885 12.3494C43.093 8.32672 45.522 5.26706 48.6754 3.17047C51.8459 1.05683 55.6214 1.19209e-05 60.0021 1.19209e-05C64.3828 1.19209e-05 68.1499 1.05683 71.3033 3.17047C74.4737 5.2841 76.9112 8.35228 78.6158 12.375C80.3203 16.3807 81.1641 21.2386 81.147 26.9489C81.147 32.6932 80.2947 37.6023 78.5902 41.6761C76.9027 45.75 74.4822 48.8608 71.3288 51.0085C68.1754 53.1563 64.3999 54.2301 60.0021 54.2301ZM60.0021 45.0511C63.0021 45.0511 65.397 43.5426 67.1868 40.5256C68.9766 37.5085 69.8629 32.983 69.8459 26.9489C69.8459 22.9773 69.4368 19.6705 68.6186 17.0284C67.8175 14.3864 66.6754 12.4006 65.1925 11.071C63.7266 9.74149 61.9964 9.07672 60.0021 9.07672C57.0192 9.07672 54.6328 10.5682 52.843 13.5511C51.0533 16.5341 50.1499 21 50.1328 26.9489C50.1328 30.9716 50.5334 34.3296 51.3345 37.0227C52.1527 39.6989 53.3033 41.7102 54.7862 43.0568C56.2692 44.3864 58.0078 45.0511 60.0021 45.0511ZM98.2457 13.8068L105.456 27.5369L112.845 13.8068H124.018L112.641 33.4432L124.325 53.0796H113.203L105.456 39.5029L97.8366 53.0796H86.5866L98.2457 33.4432L86.9957 13.8068H98.2457Z" fill="url(#paint0_linear_1_53)" fill-opacity="0.6"/>
<path d="M1.83594 91.5796V75.0796H3.1875V77.3686H3.35156C3.51823 77.0092 3.7474 76.6421 4.03906 76.2671C4.33073 75.8869 4.71615 75.5665 5.19531 75.3061C5.67969 75.0457 6.28906 74.9155 7.02344 74.9155C8.01302 74.9155 8.8776 75.1759 9.61719 75.6967C10.362 76.2124 10.9401 76.9363 11.3516 77.8686C11.7682 78.7957 11.9766 79.8764 11.9766 81.1108C11.9766 82.3504 11.7682 83.4363 11.3516 84.3686C10.9401 85.3009 10.362 86.0275 9.61719 86.5483C8.8776 87.0691 8.01823 87.3296 7.03906 87.3296C6.3151 87.3296 5.70833 87.1994 5.21875 86.9389C4.73438 86.6785 4.34115 86.3582 4.03906 85.978C3.74219 85.5926 3.51302 85.2176 3.35156 84.853H3.22656V91.5796H1.83594ZM3.21094 81.0874C3.21094 82.0561 3.35417 82.9155 3.64062 83.6655C3.93229 84.4103 4.34896 84.9962 4.89063 85.4233C5.4375 85.8452 6.09896 86.0561 6.875 86.0561C7.67188 86.0561 8.34375 85.8374 8.89063 85.3999C9.44271 84.9572 9.86198 84.3608 10.1484 83.6108C10.4401 82.8608 10.5859 82.0197 10.5859 81.0874C10.5859 80.1655 10.4427 79.3348 10.1563 78.5952C9.875 77.8556 9.45833 77.2697 8.90625 76.8374C8.35417 76.3999 7.67708 76.1811 6.875 76.1811C6.09375 76.1811 5.42969 76.3921 4.88281 76.8139C4.33594 77.2306 3.91927 77.8087 3.63281 78.5483C3.35156 79.2827 3.21094 80.129 3.21094 81.0874ZM19.6914 87.3296C18.6549 87.3296 17.7383 87.0665 16.9414 86.5405C16.1497 86.0145 15.5299 85.2879 15.082 84.3608C14.6341 83.4285 14.4102 82.353 14.4102 81.1342C14.4102 79.9051 14.6341 78.8244 15.082 77.8921C15.5299 76.9546 16.1497 76.2254 16.9414 75.7046C17.7383 75.1785 18.6549 74.9155 19.6914 74.9155C20.7279 74.9155 21.6419 75.1785 22.4336 75.7046C23.2253 76.2306 23.8451 76.9598 24.293 77.8921C24.7461 78.8244 24.9727 79.9051 24.9727 81.1342C24.9727 82.353 24.7487 83.4285 24.3008 84.3608C23.8529 85.2879 23.2305 86.0145 22.4336 86.5405C21.6419 87.0665 20.7279 87.3296 19.6914 87.3296ZM19.6914 86.0561C20.5247 86.0561 21.2305 85.8322 21.8086 85.3842C22.3867 84.9363 22.8242 84.34 23.1211 83.5952C23.4232 82.8504 23.5742 82.0301 23.5742 81.1342C23.5742 80.2384 23.4232 79.4155 23.1211 78.6655C22.8242 77.9155 22.3867 77.3139 21.8086 76.8608C21.2305 76.4077 20.5247 76.1811 19.6914 76.1811C18.8633 76.1811 18.1576 76.4077 17.5742 76.8608C16.9961 77.3139 16.556 77.9155 16.2539 78.6655C15.957 79.4155 15.8086 80.2384 15.8086 81.1342C15.8086 82.0301 15.957 82.8504 16.2539 83.5952C16.556 84.34 16.9961 84.9363 17.5742 85.3842C18.1523 85.8322 18.8581 86.0561 19.6914 86.0561ZM30.2813 87.0796L26.6562 75.0796H28.125L30.9688 84.978H31.0703L33.9063 75.0796H35.3828L38.1953 84.9546H38.3047L41.1484 75.0796H42.6172L38.9922 87.0796H37.5547L34.7109 77.2436H34.5625L31.7188 87.0796H30.2813ZM49.7637 87.3296C48.6439 87.3296 47.6751 87.0691 46.8574 86.5483C46.0397 86.0223 45.4069 85.2957 44.959 84.3686C44.5163 83.4363 44.2949 82.3634 44.2949 81.1499C44.2949 79.9415 44.5163 78.8686 44.959 77.9311C45.4069 76.9884 46.0241 76.2514 46.8105 75.7202C47.6022 75.1837 48.5163 74.9155 49.5527 74.9155C50.2038 74.9155 50.8314 75.0353 51.4355 75.2749C52.0397 75.5092 52.5814 75.8712 53.0605 76.3608C53.5449 76.8452 53.9277 77.4572 54.209 78.1967C54.4902 78.9311 54.6309 79.8009 54.6309 80.8061V81.4936H45.2559V80.2671H53.209C53.209 79.4962 53.0527 78.8035 52.7402 78.1889C52.4329 77.5691 52.0033 77.0796 51.4512 76.7202C50.9043 76.3608 50.2715 76.1811 49.5527 76.1811C48.7923 76.1811 48.123 76.3842 47.5449 76.7905C46.9668 77.1967 46.5137 77.7332 46.1855 78.3999C45.8626 79.0665 45.6986 79.7957 45.6934 80.5874V81.3217C45.6934 82.2749 45.8574 83.1082 46.1855 83.8217C46.5189 84.5301 46.9902 85.0796 47.5996 85.4702C48.209 85.8608 48.9303 86.0561 49.7637 86.0561C50.3314 86.0561 50.8288 85.9676 51.2559 85.7905C51.6882 85.6134 52.0501 85.3764 52.3418 85.0796C52.6387 84.7775 52.8626 84.4467 53.0137 84.0874L54.334 84.5171C54.1517 85.0223 53.8522 85.4884 53.4355 85.9155C53.0241 86.3426 52.5085 86.6863 51.8887 86.9467C51.2741 87.202 50.5658 87.3296 49.7637 87.3296ZM57.6953 87.0796V75.0796H59.0469V76.9233H59.1484C59.388 76.3191 59.8047 75.8322 60.3984 75.4624C60.9974 75.0874 61.6745 74.8999 62.4297 74.8999C62.5443 74.8999 62.6719 74.9025 62.8125 74.9077C62.9531 74.9129 63.0703 74.9181 63.1641 74.9233V76.3374C63.1016 76.327 62.9922 76.3113 62.8359 76.2905C62.6797 76.2697 62.5104 76.2592 62.3281 76.2592C61.7031 76.2592 61.1458 76.3921 60.6563 76.6577C60.1719 76.9181 59.7891 77.2801 59.5078 77.7436C59.2266 78.2072 59.0859 78.7358 59.0859 79.3296V87.0796H57.6953Z" fill="#0D542B"/>
<defs>
<linearGradient id="paint0_linear_1_53" x1="63.5" y1="1.07956" x2="63.5" y2="53.0796" gradientUnits="userSpaceOnUse">
<stop stop-color="#032E15"/>
<stop offset="1" stop-color="#016630"/>
</linearGradient>
</defs>
</svg>
